<?xml version="1.0" standalone="no"?>
<!DOCTYPE svg PUBLIC "-//W3C//DTD SVG 20010904//EN"
 "http://www.w3.org/TR/2001/REC-SVG-20010904/DTD/svg10.dtd">
<svg version="1.0" xmlns="http://www.w3.org/2000/svg"
 width="314.000000pt" height="314.000000pt" viewBox="0 0 314.000000 314.000000"
 preserveAspectRatio="xMidYMid meet">
<metadata>
Created by potrace 1.11, written by Peter Selinger 2001-2013
</metadata>
<g transform="translate(0.000000,314.000000) scale(0.100000,-0.100000)"
fill="#000000" stroke="none">
<path d="M1445 2972 c-93 -9 -275 -52 -340 -81 -64 -28 -175 -87 -221 -116
-178 -114 -350 -321 -438 -527 -69 -165 -87 -257 -93 -491 l-6 -208 -49 -142
c-27 -78 -51 -149 -53 -157 -2 -8 -24 -73 -49 -145 -24 -71 -50 -149 -56 -172
-23 -92 -11 -211 32 -298 17 -34 195 -278 232 -318 6 -7 22 -28 36 -47 86
-122 182 -180 301 -180 80 0 140 23 265 105 l111 73 54 -18 c58 -20 96 -27
174 -36 28 -3 73 -9 100 -13 87 -12 318 0 420 23 89 20 120 28 137 37 15 8 28
4 64 -20 25 -17 49 -31 54 -31 4 0 10 -3 12 -7 5 -13 60 -48 123 -79 52 -25
71 -29 145 -29 72 0 93 4 141 27 31 16 67 38 81 50 33 29 314 399 344 453 45
81 62 212 39 300 -4 17 -34 109 -67 205 -33 96 -79 234 -103 305 l-44 130 -4
195 c-5 198 -7 211 -33 313 -42 164 -124 328 -228 456 -118 146 -326 300 -479
357 -52 19 -186 63 -192 62 -3 0 -36 5 -73 12 -64 10 -273 18 -337 12z m343
-91 c40 -6 88 -18 107 -26 19 -7 35 -12 35 -10 0 6 84 -27 157 -62 98 -47 204
-124 294 -213 132 -131 219 -269 275 -437 32 -96 65 -275 53 -287 -5 -6 -450
-9 -1146 -9 l-1137 1 3 43 c1 24 5 47 7 50 2 4 6 24 9 45 17 112 108 348 150
391 8 7 17 22 20 33 3 11 11 20 16 20 5 0 9 5 9 10 0 11 27 44 105 128 153
165 432 305 651 327 38 4 70 8 72 10 7 6 255 -4 320 -14z m926 -1232 c-1 -80
3 -107 28 -179 16 -47 38 -114 50 -150 11 -36 23 -72 26 -80 3 -8 6 -17 7 -20
1 -3 5 -12 8 -20 4 -8 16 -44 28 -80 49 -151 49 -149 36 -162 -7 -7 -44 -51
-82 -98 -38 -47 -72 -87 -75 -90 -22 -21 -228 -279 -233 -292 -8 -22 29 -68
54 -68 22 0 49 25 114 104 22 27 45 54 50 60 6 6 49 58 95 116 47 58 93 114
104 125 18 20 18 19 12 -33 -10 -76 -51 -156 -128 -247 -9 -11 -64 -83 -122
-159 -129 -171 -170 -202 -277 -205 -87 -3 -96 2 -329 154 -277 181 -326 200
-515 199 -178 0 -236 -22 -485 -187 -80 -53 -154 -103 -165 -112 -10 -8 -23
-15 -29 -15 -5 0 -17 -6 -25 -14 -24 -21 -99 -33 -157 -25 -62 8 -139 55 -175
107 -13 19 -29 40 -34 46 -6 6 -65 83 -131 171 -121 161 -148 213 -158 295
l-5 45 20 -25 c11 -14 31 -37 44 -51 12 -14 54 -64 92 -110 37 -46 76 -93 85
-104 9 -11 33 -40 54 -65 48 -59 70 -73 99 -66 57 14 52 63 -12 138 -47 56
-79 95 -229 277 -66 79 -118 149 -117 155 1 6 43 130 93 276 l92 265 2 115 1
115 65 0 64 0 -1 -50 c-1 -70 23 -169 58 -243 l31 -62 -53 -68 c-30 -37 -56
-69 -59 -72 -3 -3 -29 -35 -57 -71 -47 -61 -57 -83 -54 -116 1 -11 85 -119
120 -154 9 -8 32 -35 51 -59 33 -42 68 -83 117 -140 12 -14 30 -35 41 -47 11
-13 31 -23 46 -23 22 0 119 47 197 95 9 6 47 27 85 48 38 20 92 50 119 65 28
16 82 46 120 67 39 21 92 51 118 67 26 15 52 28 56 28 5 0 14 6 20 14 19 22
60 28 89 13 15 -8 52 -27 82 -44 73 -40 141 -78 220 -121 36 -19 81 -44 100
-55 19 -11 64 -36 100 -55 36 -19 100 -55 144 -79 101 -56 124 -56 167 0 19
23 36 44 39 47 3 3 41 50 84 105 44 55 82 102 85 105 24 21 101 132 106 151 5
23 -31 81 -147 232 -12 15 -31 42 -44 60 l-22 32 24 47 c31 61 54 158 54 230
l0 57 53 3 c30 2 56 -2 62 -8 6 -6 10 -54 9 -105z m-980 -14 c58 -28 146 -105
146 -129 0 -18 88 -113 134 -145 71 -49 146 -69 250 -67 66 2 101 7 125 20
l35 19 23 -29 c28 -35 25 -31 91 -122 l53 -73 -33 -42 c-18 -23 -40 -51 -50
-62 -9 -11 -33 -40 -53 -65 -19 -25 -50 -62 -67 -82 -17 -21 -37 -46 -44 -55
-12 -17 -16 -16 -71 13 -61 33 -237 129 -313 171 -25 14 -70 39 -100 55 -30
17 -108 59 -172 95 l-118 64 -42 -20 c-24 -11 -70 -36 -103 -55 -64 -37 -67
-39 -190 -106 -44 -24 -102 -56 -128 -72 -26 -15 -50 -28 -53 -28 -2 0 -21
-11 -42 -23 -71 -45 -193 -108 -201 -105 -5 2 -65 70 -134 151 l-125 149 72
91 c121 154 110 144 141 127 20 -11 59 -15 134 -14 100 0 110 2 175 34 71 36
150 105 176 156 8 16 21 35 27 42 7 7 16 19 20 26 18 29 95 79 149 97 88 29
209 22 288 -16z"/>
<path d="M385 934 c-26 -28 -25 -44 3 -44 23 1 62 35 62 54 0 25 -38 19 -65
-10z"/>
<path d="M2690 944 c0 -20 39 -53 63 -54 24 0 21 28 -5 51 -28 23 -58 24 -58
3z"/>
<path d="M442 898 c-30 -19 -42 -51 -24 -62 14 -8 72 37 72 56 0 26 -13 28
-48 6z"/>
<path d="M2655 910 c-11 -18 4 -45 34 -63 29 -17 41 -14 41 11 0 24 -64 69
-75 52z"/>
<path d="M473 841 c-27 -23 -30 -51 -5 -51 23 0 70 42 65 58 -7 18 -34 14 -60
-7z"/>
<path d="M2605 851 c-8 -14 42 -61 65 -61 27 0 25 27 -2 51 -25 20 -53 25 -63
10z"/>
<path d="M2571 803 c-8 -15 -4 -23 21 -45 32 -27 61 -27 56 0 -2 8 -17 25 -35
39 -30 23 -32 23 -42 6z"/>
<path d="M512 787 c-25 -27 -28 -43 -8 -50 17 -7 75 44 69 61 -7 19 -38 14
-61 -11z"/>
<path d="M559 742 c-28 -25 -31 -32 -20 -45 12 -15 16 -14 41 5 36 26 43 43
25 58 -10 9 -21 5 -46 -18z"/>
<path d="M2531 751 c-8 -14 -5 -23 14 -40 50 -42 82 -12 35 32 -34 32 -36 32
-49 8z"/>
<path d="M2273 520 c-43 -26 -56 -54 -50 -109 11 -98 117 -133 188 -61 52 51
36 140 -31 175 -39 20 -69 19 -107 -5z"/>
</g>
</svg>
